<svg width="404" height="662" viewBox="0 0 404 662" fill="none" xmlns="http://www.w3.org/2000/svg">
<g clip-path="url(#clip0_2598_8566)">
<rect width="404" height="662" rx="100" fill="#020202"/>
<path d="M341.906 353.727L242.425 434.368C239.006 437.069 235.089 439.069 230.897 440.252C226.706 441.436 222.322 441.781 217.998 441.267C213.673 440.753 209.493 439.391 205.695 437.258C201.897 435.125 198.557 432.264 195.866 428.837C191.078 422.998 188.402 415.71 188.27 408.156C188.139 400.603 190.561 393.225 195.144 387.221L159.706 343.414L124.182 372.293C124.24 377.585 123.091 382.822 120.822 387.604C118.554 392.385 115.225 396.586 111.089 399.885L-43.6835 525.183C-50.9127 531.043 -60.1708 533.789 -69.4212 532.817C-78.6715 531.845 -87.1564 527.234 -93.0092 519.999C-98.8621 512.764 -101.603 503.497 -100.63 494.237C-99.6569 484.977 -95.0488 476.483 -87.8196 470.623L66.8632 345.316C72.2714 340.956 78.8413 338.284 85.7546 337.634C92.6679 336.983 99.6191 338.383 105.743 341.659L137.377 316.015L101.94 272.208C94.5631 275.697 86.1726 276.386 78.3275 274.148C70.4825 271.91 63.7165 266.897 59.2873 260.041C54.858 253.184 53.0667 244.951 54.2463 236.87C55.4259 228.79 59.4962 221.412 65.7006 216.109L165.181 135.468C171.666 130.465 179.749 127.998 187.919 128.528C196.088 129.059 203.784 132.551 209.566 138.351C215.348 144.151 218.821 151.862 219.334 160.04C219.847 168.219 217.365 176.305 212.354 182.786L305.297 297.681C312.686 293.965 321.183 293.101 329.166 295.253C337.15 297.405 344.063 302.422 348.587 309.349C353.111 316.275 354.931 324.627 353.699 332.811C352.466 340.996 348.269 348.441 341.906 353.727Z" fill="white"/>
</g>
<defs>
<clipPath id="clip0_2598_8566">
<rect width="404" height="662" rx="100" fill="white"/>
</clipPath>
</defs>
</svg>
